<?xml version="1.0" encoding="UTF-8"?>
<!DOCTYPE svg PUBLIC "-//W3C//DTD SVG 1.1//EN" "http://www.w3.org/Graphics/SVG/1.1/DTD/svg11.dtd">
<!-- Creator: CorelDRAW X7 -->
<svg xmlns="http://www.w3.org/2000/svg" xml:space="preserve" width="33.3233mm" height="21.957mm" version="1.1" style="shape-rendering:geometricPrecision; text-rendering:geometricPrecision; image-rendering:optimizeQuality; fill-rule:evenodd; clip-rule:evenodd"
viewBox="0 0 843 555"
 xmlns:xlink="http://www.w3.org/1999/xlink">
 <defs>
  <style type="text/css">
   <![CDATA[
    .fil0 {fill:#748187}
    .fil1 {fill:#E51A4B;fill-rule:nonzero}
   ]]>
  </style>
 </defs>
 <g id="Layer_x0020_1">
  <metadata id="CorelCorpID_0Corel-Layer"/>
  <path class="fil0" d="M508 555l-508 0 0 -555 508 0 0 108 -238 0 0 111 113 0 0 219 125 0 0 117zm-383 -116l0 -219 0 -112 128 1 0 111 0 219 -128 0z"/>
  <polygon class="fil1" points="843,330 732,330 732,219 843,219 "/>
  <polygon class="fil0" points="732,219 621,219 621,108 732,108 "/>
  <polygon class="fil0" points="621,330 510,330 510,219 621,219 "/>
  <polygon class="fil0" points="732,441 621,441 621,330 732,330 "/>
 </g>
</svg>
